<svg xmlns="http://www.w3.org/2000/svg" xmlns:xlink="http://www.w3.org/1999/xlink" viewBox="0,0,256,256" width="30px" height="30px" fill-rule="nonzero"><g fill="#5c7cfa" fill-rule="nonzero" stroke="none" stroke-width="1" stroke-linecap="butt" stroke-linejoin="miter" stroke-miterlimit="10" stroke-dasharray="" stroke-dashoffset="0" font-family="none" font-weight="none" font-size="none" text-anchor="none" style="mix-blend-mode: normal"><g transform="scale(8.53333,8.53333)"><path d="M15,3c-6.6,0 -12,5.4 -12,12c0,6.6 5.4,12 12,12c6.6,0 12,-5.4 12,-12c0,-2.2 -0.59961,-4.2 -1.59961,-6l-11.30078,11.30078c-0.2,0.2 -0.39922,0.29883 -0.69922,0.29883c-0.3,0 -0.50117,-0.09883 -0.70117,-0.29883l-4.5,-4.5c-0.4,-0.4 -0.4,-1.00039 0,-1.40039c0.4,-0.4 1.00039,-0.4 1.40039,0l3.80078,3.79883l10.79883,-10.89844c-2.2,-2.6 -5.49922,-4.30078 -9.19922,-4.30078zM24.19922,7.30078c0.5,0.5 0.90117,1.09922 1.20117,1.69922l2.29883,-2.30078c0.4,-0.4 0.4,-1 0,-1.5c-0.4,-0.4 -0.99844,-0.4 -1.39844,0z"></path></g></g></svg>